<svg width="21" height="16" viewBox="0 0 21 16" fill="none" xmlns="http://www.w3.org/2000/svg">
<g clip-path="url(#clip0_257_2333)">
<path d="M10.3677 12.8249C8.59616 12.8249 6.82575 12.826 5.05423 12.8238C4.35249 12.8238 4.17623 12.5998 4.29484 11.9036C4.38686 11.3704 4.66511 10.9381 5.04757 10.5822C5.73157 9.94587 5.97879 9.1499 5.99874 8.24862C6.01537 7.43825 5.9289 6.62454 6.05417 5.8186C6.32023 4.10695 7.27583 2.93406 8.87996 2.2933C9.12939 2.19353 9.29235 2.11592 9.33337 1.78889C9.39877 1.26121 9.87214 0.916435 10.3865 0.906458C10.9253 0.89648 11.3976 1.24679 11.4829 1.80552C11.5262 2.09375 11.6481 2.18909 11.8942 2.28221C13.6934 2.95734 14.7865 4.52377 14.8109 6.44052C14.8187 7.08572 14.7998 7.73202 14.8187 8.37611C14.8419 9.21642 15.1047 9.96028 15.7355 10.5556C16.1589 10.9558 16.4671 11.4292 16.5347 12.0311C16.5979 12.5965 16.4194 12.8215 15.8485 12.8238C14.0216 12.8293 12.1957 12.826 10.3688 12.826L10.3677 12.8249Z" fill="white"/>
<path d="M20.4028 6.49156C20.4117 8.40608 20.0658 9.7253 19.3873 10.9614C19.2388 11.2319 19.0681 11.5245 18.7133 11.325C18.3575 11.1254 18.5304 10.8383 18.6745 10.5623C19.9705 8.08127 19.9228 5.62021 18.5348 3.18797C18.3863 2.92745 18.1745 2.64365 18.5282 2.42305C18.9129 2.18359 19.0836 2.51949 19.2488 2.78888C19.9993 4.01276 20.4028 5.48385 20.4039 6.49045L20.4028 6.49156Z" fill="white"/>
<path d="M2.08135 2.34766C2.44164 2.35985 2.56581 2.7013 2.32857 3.09373C1.81751 3.93848 1.46941 4.83976 1.30978 5.81642C1.03817 7.47598 1.32641 9.03908 2.10796 10.5202C2.14233 10.5856 2.1778 10.6499 2.2166 10.713C2.36626 10.9558 2.35296 11.1875 2.09798 11.3305C1.83968 11.4758 1.64679 11.3438 1.506 11.1055C0.948379 10.1543 0.59474 9.13109 0.466144 8.04135C0.244427 6.15232 0.601392 4.37637 1.59468 2.7412C1.70998 2.55164 1.81529 2.34987 2.08135 2.34766Z" fill="white"/>
<path d="M10.3957 13.2993C10.9123 13.2993 11.43 13.3137 11.9455 13.2938C12.2648 13.2816 12.318 13.4102 12.2626 13.6896C12.0963 14.5221 11.3159 15.1751 10.4423 15.1928C9.55098 15.2116 8.73728 14.562 8.55215 13.7073C8.48231 13.3869 8.56988 13.2772 8.90246 13.2927C9.39911 13.316 9.89797 13.2982 10.3968 13.2982L10.3957 13.2993Z" fill="white"/>
<path d="M3.46257 4.01055C3.79847 4.00168 3.96365 4.33315 3.77076 4.68235C3.52909 5.11914 3.31735 5.56368 3.21314 6.05367C2.99475 7.08244 3.13 8.06354 3.62332 8.99254C3.77187 9.2719 3.90268 9.55791 3.5313 9.73972C3.18653 9.90823 3.02911 9.62665 2.90384 9.37832C2.05578 7.69216 2.09568 6.02042 3.0147 4.37306C3.11337 4.19679 3.22201 4.01831 3.46368 4.01166L3.46257 4.01055Z" fill="white"/>
<path d="M18.5058 6.95494C18.5203 7.81964 18.303 8.6278 17.9039 9.38829C17.7742 9.6355 17.6145 9.90932 17.2709 9.73528C16.9394 9.56677 17.0259 9.30293 17.1667 9.03132C17.9128 7.59903 17.885 6.17561 17.0824 4.77435C16.9328 4.51273 16.8219 4.24999 17.1523 4.06819C17.4815 3.88638 17.6589 4.13248 17.8041 4.38302C18.2631 5.17899 18.5125 6.0326 18.507 6.95605L18.5058 6.95494Z" fill="white"/>
</g>
<defs>
<clipPath id="clip0_257_2333">
<rect width="20" height="14.2875" fill="white" transform="translate(0.402832 0.906494)"/>
</clipPath>
</defs>
</svg>
