<svg width="583" height="131" viewBox="0 0 583 131" fill="none" xmlns="http://www.w3.org/2000/svg">
<mask id="mask0_257_3169" style="mask-type:alpha" maskUnits="userSpaceOnUse" x="7" y="29" width="570" height="71">
<path d="M7.00957 29.9556H54.8096V39.8556H18.6096V61.2556H50.0096V71.1556H18.6096V99.9556H7.00957V29.9556ZM77.7768 29.9556H88.7768L114.077 99.9556H102.277L96.2768 83.3556H70.1768L64.1768 99.9556H52.3768L77.7768 29.9556ZM93.5768 73.6556L83.2768 44.0556H83.0768L72.9768 73.6556H93.5768ZM108.053 29.9556H120.053L138.553 86.1556H138.753L157.253 29.9556H169.253L144.453 99.9556H132.853L108.053 29.9556ZM175.248 88.6556V41.2556L186.548 29.9556H221.148L232.448 41.2556V88.6556L221.148 99.9556H186.548L175.248 88.6556ZM215.148 89.9556L220.848 84.3556V45.5556L215.148 39.9556H192.548L186.848 45.5556V84.3556L192.548 89.9556H215.148ZM245.486 88.2556V29.9556H257.086V84.3556L262.786 89.9556H283.386L289.086 84.3556V29.9556H300.686V88.2556L288.986 99.9556H257.186L245.486 88.2556ZM367.924 77.3556V99.9556H356.324V80.1556L349.124 72.2556H326.324V99.9556H314.724V29.9556H357.324L367.524 40.2556V61.7556L360.224 69.0556L367.924 77.3556ZM326.324 62.6556H352.124L356.124 58.6556V43.7556L352.124 39.7556H326.324V62.6556ZM381.924 29.9556H393.524V99.9556H381.924V29.9556ZM423.986 39.8556H402.986V29.9556H456.586V39.8556H435.586V99.9556H423.986V39.8556ZM465.603 29.9556H514.403V39.8556H477.203V59.8556H511.503V69.6556H477.203V90.0556H514.403V99.9556H465.603V29.9556ZM523.869 89.6556V80.8556H535.269V86.1556L539.069 89.9556H560.869L564.869 85.9556V73.0556L560.969 69.1556H534.369L524.069 58.9556V40.2556L534.369 29.9556H565.169L575.469 40.2556V49.1556H564.069V43.7556L560.169 39.9556H539.369L535.469 43.7556V55.3556L539.369 59.1556H565.969L576.269 69.4556V89.4556L565.769 99.9556H534.169L523.869 89.6556Z" fill="#2B1953"/>
</mask>
<g mask="url(#mask0_257_3169)">
<rect x="27.8584" y="36.6958" width="1169.74" height="59.5134" rx="3" fill="white"/>
</g>
</svg>
