<svg width="466" height="131" viewBox="0 0 466 131" fill="none" xmlns="http://www.w3.org/2000/svg">
<mask id="mask0_257_3769" style="mask-type:alpha" maskUnits="userSpaceOnUse" x="7" y="29" width="452" height="71">
<path d="M60.9192 76.8309V99.4309H49.3192V79.6309L42.1192 71.7309H19.3192V99.4309H7.71924V29.4309H50.3192L60.5192 39.7309V61.2309L53.2192 68.5309L60.9192 76.8309ZM19.3192 62.1309H45.1192L49.1192 58.1309V43.2309L45.1192 39.2309H19.3192V62.1309ZM74.4185 29.4309H123.218V39.3309H86.0185V59.3309H120.318V69.1309H86.0185V89.5309H123.218V99.4309H74.4185V29.4309ZM133.184 88.1309V40.7309L144.484 29.4309H177.884L188.984 40.5309V49.7309H177.384V44.6309L172.084 39.4309H150.484L144.784 45.0309V83.8309L150.484 89.4309H172.084L177.684 83.9309V71.2309H162.384V61.2309H188.984V88.1309L177.684 99.4309H144.484L133.184 88.1309ZM201.481 29.4309H213.081V99.4309H201.481V29.4309ZM226.043 89.1309V80.3309H237.443V85.6309L241.243 89.4309H263.043L267.043 85.4309V72.5309L263.143 68.6309H236.543L226.243 58.4309V39.7309L236.543 29.4309H267.343L277.643 39.7309V48.6309H266.243V43.2309L262.343 39.4309H241.543L237.643 43.2309V54.8309L241.543 58.6309H268.143L278.443 68.9309V88.9309L267.943 99.4309H236.343L226.043 89.1309ZM303.895 39.3309H282.895V29.4309H336.495V39.3309H315.495V99.4309H303.895V39.3309ZM345.512 29.4309H394.312V39.3309H357.112V59.3309H391.412V69.1309H357.112V89.5309H394.312V99.4309H345.512V29.4309ZM458.478 76.8309V99.4309H446.878V79.6309L439.678 71.7309H416.878V99.4309H405.278V29.4309H447.878L458.078 39.7309V61.2309L450.778 68.5309L458.478 76.8309ZM416.878 62.1309H442.678L446.678 58.1309V43.2309L442.678 39.2309H416.878V62.1309Z" fill="#2B1953"/>
</mask>
<g mask="url(#mask0_257_3769)">
<rect x="28.3906" y="35.6712" width="1170" height="59.5134" rx="3" fill="white"/>
</g>
</svg>
