<svg width="638" height="131" viewBox="0 0 638 131" fill="none" xmlns="http://www.w3.org/2000/svg">
<mask id="mask0_257_4191" style="mask-type:alpha" maskUnits="userSpaceOnUse" x="5" y="29" width="628" height="71">
<path d="M5.58789 89.5308V80.7308H16.9879V86.0308L20.7879 89.8308H42.5879L46.5879 85.8308V72.9308L42.6879 69.0308H16.0879L5.78789 58.8308V40.1308L16.0879 29.8308H46.8879L57.1879 40.1308V49.0308H45.7879V43.6308L41.8879 39.8308H21.0879L17.1879 43.6308V55.2308L21.0879 59.0308H47.6879L57.9879 69.3308V89.3308L47.4879 99.8308H15.8879L5.58789 89.5308ZM69.9785 88.1308V29.8308H81.5785V84.2308L87.2785 89.8308H107.879L113.579 84.2308V29.8308H125.179V88.1308L113.479 99.8308H81.6785L69.9785 88.1308ZM139.217 29.8308H181.617L191.317 39.5308V59.1308L187.017 63.4308L194.417 70.8308V89.3308L183.917 99.8308H139.217V29.8308ZM175.817 59.9308L179.917 55.8308V43.6308L175.917 39.6308H150.517V59.9308H175.817ZM178.217 90.0308L183.017 85.2308V74.0308L178.217 69.3308H150.517V90.0308H178.217ZM205.428 29.8308H248.728L260.428 41.5308V88.1308L248.728 99.8308H205.428V29.8308ZM243.128 89.8308L248.828 84.2308V45.4308L243.128 39.8308H217.028V89.8308H243.128ZM272.396 88.5308V41.1308L283.696 29.8308H318.296L329.596 41.1308V88.5308L318.296 99.8308H283.696L272.396 88.5308ZM312.296 89.8308L317.996 84.2308V45.4308L312.296 39.8308H289.696L283.996 45.4308V84.2308L289.696 89.8308H312.296ZM342.635 29.8308H353.735L375.135 78.0308H375.335L396.735 29.8308H407.935V99.8308H396.835V53.0308H396.635L379.035 90.9308H371.435L353.935 53.0308H353.735V99.8308H342.635V29.8308ZM441.332 29.8308H452.332L477.632 99.8308H465.832L459.832 83.2308H433.732L427.732 99.8308H415.932L441.332 29.8308ZM457.132 73.5308L446.832 43.9308H446.632L436.532 73.5308H457.132ZM486.104 29.8308H497.704V99.8308H486.104V29.8308ZM512.166 29.8308H522.766L555.766 80.7308H555.966V29.8308H567.066V99.8308H556.466L523.466 49.0308H523.266V99.8308H512.166V29.8308ZM579.611 89.5308V80.7308H591.011V86.0308L594.811 89.8308H616.611L620.611 85.8308V72.9308L616.711 69.0308H590.111L579.811 58.8308V40.1308L590.111 29.8308H620.911L631.211 40.1308V49.0308H619.811V43.6308L615.911 39.8308H595.111L591.211 43.6308V55.2308L595.111 59.0308H621.711L632.011 69.3308V89.3308L621.511 99.8308H589.911L579.611 89.5308Z" fill="#2B1953"/>
</mask>
<g mask="url(#mask0_257_4191)">
<rect x="28.1304" y="36.071" width="1170" height="59.5134" rx="3" fill="white"/>
</g>
</svg>
