<svg width="385" height="131" viewBox="0 0 385 131" fill="none" xmlns="http://www.w3.org/2000/svg">
<mask id="mask0_257_3472" style="mask-type:alpha" maskUnits="userSpaceOnUse" x="7" y="29" width="372" height="71">
<path d="M7.63037 29.131H50.9304L62.6304 40.831V87.431L50.9304 99.131H7.63037V29.131ZM45.3304 89.131L51.0304 83.531V44.731L45.3304 39.131H19.2304V89.131H45.3304ZM75.5991 29.131H124.399V39.031H87.1991V59.031H121.499V68.831H87.1991V89.231H124.399V99.131H75.5991V29.131ZM151.365 39.031H130.365V29.131H183.965V39.031H162.965V99.131H151.365V39.031ZM203.398 29.131H214.398L239.698 99.131H227.898L221.898 82.531H195.798L189.798 99.131H177.998L203.398 29.131ZM219.198 72.831L208.898 43.231H208.698L198.598 72.831H219.198ZM248.169 29.131H259.769V99.131H248.169V29.131ZM274.232 29.131H285.832V89.231H321.032V99.131H274.232V29.131ZM326.541 88.831V80.031H337.941V85.331L341.741 89.131H363.541L367.541 85.131V72.231L363.641 68.331H337.041L326.741 58.131V39.431L337.041 29.131H367.841L378.141 39.431V48.331H366.741V42.931L362.841 39.131H342.041L338.141 42.931V54.531L342.041 58.331H368.641L378.941 68.631V88.631L368.441 99.131H336.841L326.541 88.831Z" fill="#2B1953"/>
</mask>
<g mask="url(#mask0_257_3472)">
<rect x="18.5093" y="35.8713" width="1170" height="59.5134" rx="3" fill="white"/>
</g>
</svg>
