<svg width="184" height="131" viewBox="0 0 184 131" fill="none" xmlns="http://www.w3.org/2000/svg">
<mask id="mask0_257_3596" style="mask-type:alpha" maskUnits="userSpaceOnUse" x="7" y="29" width="173" height="84">
<path d="M7.11053 29.131H54.9105V39.031H18.7105V60.431H50.1105V70.331H18.7105V99.131H7.11053V29.131ZM77.8777 29.131H88.8777L114.178 99.131H102.378L96.3777 82.531H70.2777L64.2777 99.131H52.4777L77.8777 29.131ZM93.6777 72.831L83.3777 43.231H83.1777L73.0777 72.831H93.6777ZM179.085 104.931L171.985 112.031L158.985 99.131H130.985L119.685 87.831V40.431L130.985 29.131H165.585L176.885 40.431V87.831L169.585 95.131L179.085 104.931ZM159.585 89.131L165.285 83.531V44.731L159.585 39.131H136.985L131.285 44.731V83.531L136.985 89.131H159.585Z" fill="#2B1953"/>
</mask>
<g mask="url(#mask0_257_3596)">
<rect x="17.9892" y="35.8713" width="1170" height="59.5134" rx="3" fill="white"/>
</g>
</svg>
