<svg width="634" height="131" viewBox="0 0 634 131" fill="none" xmlns="http://www.w3.org/2000/svg">
<mask id="mask0_257_3062" style="mask-type:alpha" maskUnits="userSpaceOnUse" x="6" y="29" width="622" height="71">
<path d="M6.50342 88.6556V41.2556L17.8034 29.9556H50.6034L61.7034 41.0556V50.2556H50.1034V45.1556L44.8034 39.9556H23.8034L18.1034 45.5556V84.3556L23.8034 89.9556H44.8034L50.1034 84.7556V79.6556H61.7034V88.8556L50.6034 99.9556H17.8034L6.50342 88.6556ZM71.2495 88.6556V41.2556L82.5495 29.9556H117.15L128.45 41.2556V88.6556L117.15 99.9556H82.5495L71.2495 88.6556ZM111.15 89.9556L116.85 84.3556V45.5556L111.15 39.9556H88.5495L82.8495 45.5556V84.3556L88.5495 89.9556H111.15ZM141.488 29.9556H152.088L185.088 80.8556H185.288V29.9556H196.388V99.9556H185.788L152.788 49.1556H152.588V99.9556H141.488V29.9556ZM226.433 39.8556H205.433V29.9556H259.033V39.8556H238.033V99.9556H226.433V39.8556ZM321.25 77.3556V99.9556H309.65V80.1556L302.45 72.2556H279.65V99.9556H268.05V29.9556H310.65L320.85 40.2556V61.7556L313.55 69.0556L321.25 77.3556ZM279.65 62.6556H305.45L309.45 58.6556V43.7556L305.45 39.7556H279.65V62.6556ZM333.75 88.6556V41.2556L345.05 29.9556H379.65L390.95 41.2556V88.6556L379.65 99.9556H345.05L333.75 88.6556ZM373.65 89.9556L379.35 84.3556V45.5556L373.65 39.9556H351.05L345.35 45.5556V84.3556L351.05 89.9556H373.65ZM403.988 29.9556H415.588V90.0556H450.788V99.9556H403.988V29.9556ZM459.261 29.9556H470.861V90.0556H506.061V99.9556H459.261V29.9556ZM514.535 29.9556H563.335V39.8556H526.135V59.8556H560.435V69.6556H526.135V90.0556H563.335V99.9556H514.535V29.9556ZM627.5 77.3556V99.9556H615.9V80.1556L608.7 72.2556H585.9V99.9556H574.3V29.9556H616.9L627.1 40.2556V61.7556L619.8 69.0556L627.5 77.3556ZM585.9 62.6556H611.7L615.7 58.6556V43.7556L611.7 39.7556H585.9V62.6556Z" fill="#2B1953"/>
</mask>
<g mask="url(#mask0_257_3062)">
<rect x="-546" y="36.6958" width="1169.74" height="59.5134" rx="3" fill="white"/>
</g>
</svg>
