<svg width="52" height="52" viewBox="0 0 52 52" fill="none" xmlns="http://www.w3.org/2000/svg">
<g clip-path="url(#clip0_257_4048)">
<path d="M26.3545 51.7998C40.4378 51.7998 51.8545 40.3831 51.8545 26.2998C51.8545 12.2165 40.4378 0.799805 26.3545 0.799805C12.2712 0.799805 0.854492 12.2165 0.854492 26.2998C0.854492 40.3831 12.2712 51.7998 26.3545 51.7998Z" fill="#1652F0"/>
<path fill-rule="evenodd" clip-rule="evenodd" d="M7.80957 26.3007C7.80957 36.543 16.1127 44.8461 26.3551 44.8461C36.5974 44.8461 44.9005 36.543 44.9005 26.3007C44.9005 16.0582 36.5974 7.75513 26.3551 7.75513C16.1127 7.75513 7.80957 16.0582 7.80957 26.3007ZM22.9293 20.3259C21.5209 20.3259 20.3793 21.4675 20.3793 22.8759V29.7274C20.3793 31.1357 21.5209 32.2774 22.9293 32.2774H29.7808C31.1891 32.2774 32.3308 31.1357 32.3308 29.7274V22.8759C32.3308 21.4675 31.1891 20.3259 29.7808 20.3259H22.9293Z" fill="white"/>
</g>
<defs>
<clipPath id="clip0_257_4048">
<rect width="51" height="51" fill="white" transform="translate(0.854492 0.799805)"/>
</clipPath>
</defs>
</svg>
