<svg width="52" height="43" viewBox="0 0 52 43" fill="none" xmlns="http://www.w3.org/2000/svg">
<path d="M5.23305 21.5998C5.23305 16.2662 7.21493 11.4 10.4781 7.68637L3.97386 9.17687C1.92571 12.8557 0.754883 17.0904 0.754883 21.5998C0.754883 30.3628 5.16046 38.09 11.8761 42.6973L18.4908 41.1815C10.7242 38.0742 5.23305 30.4828 5.23305 21.5998Z" fill="url(#paint0_linear_301_73)"/>
<path d="M41.0016 0.691772L34.5194 2.17595C42.0746 5.38115 47.3764 12.8684 47.3764 21.5998C47.3764 27.0849 45.2841 32.0775 41.8537 35.829L48.4683 34.3132C50.6175 30.568 51.8546 26.2292 51.8546 21.5998C51.8546 12.9568 47.5626 5.318 41.0016 0.691772Z" fill="url(#paint1_linear_301_73)"/>
<path d="M26.3051 40.1426C36.5396 40.1426 44.8364 31.8407 44.8364 21.5998C44.8364 11.3589 36.5396 3.05701 26.3051 3.05701C16.0706 3.05701 7.77393 11.3589 7.77393 21.5998C7.77393 31.8407 16.0706 40.1426 26.3051 40.1426Z" fill="url(#paint2_linear_301_73)"/>
<path d="M36.9711 33.4288L25.3481 36.0814L23.1264 23.1248L17.3322 24.4479L22.8202 24.6121L20.2388 37.2466L8.61572 39.8992L14.6971 10.2029L25.0514 7.83771C25.771 7.6735 26.4179 8.08086 26.5221 8.7819L28.5418 20.5038L31.4294 6.38195L43.0525 3.72937L36.968 33.4288H36.9711Z" fill="#D3FF00"/>
<defs>
<linearGradient id="paint0_linear_301_73" x1="26.3047" y1="42.6973" x2="26.3047" y2="0.691772" gradientUnits="userSpaceOnUse">
<stop stop-color="#490A8C"/>
<stop offset="0.78" stop-color="#881FDE"/>
</linearGradient>
<linearGradient id="paint1_linear_301_73" x1="43.1887" y1="35.8258" x2="43.1887" y2="0.691772" gradientUnits="userSpaceOnUse">
<stop stop-color="#490A8C"/>
<stop offset="0.78" stop-color="#881FDE"/>
</linearGradient>
<linearGradient id="paint2_linear_301_73" x1="26.3051" y1="40.1394" x2="26.3051" y2="3.05701" gradientUnits="userSpaceOnUse">
<stop stop-color="#DB00A7"/>
<stop offset="0.78" stop-color="#FF0677"/>
</linearGradient>
</defs>
</svg>
