<svg width="35" height="53" viewBox="0 0 35 53" fill="none" xmlns="http://www.w3.org/2000/svg">
<g clip-path="url(#clip0_257_4022)">
<path d="M1.35645 30.0168L2.58951 29.475L17.8544 22.7655L34.3524 30.0168L28.1532 42.9555L12.9989 45.1228L1.60464 32.6894L1.35645 30.0168Z" fill="#133444"/>
<path d="M30.9208 22.0377C28.1966 18.721 24.3374 16.5626 20.1109 15.9921C20.0207 15.9792 19.9304 15.9678 19.8402 15.9579C18.5209 15.8028 17.1883 15.8028 15.8691 15.9579C15.7788 15.9685 15.6886 15.9799 15.5983 15.9921C11.3719 16.5626 7.51265 18.721 4.78847 22.0377L4.10255 23.1875L2.95974 25.0993L2.12379 26.5034C2.108 26.5411 2.0922 26.5799 2.07754 26.6175L2.06738 26.6437L3.9119 27.7468L15.5995 34.7368L17.8558 36.0863V19.3788L15.5995 20.4145V17.913L17.8558 16.8761L20.112 17.913L31.6078 23.1921L30.9208 22.0377Z" fill="#C42370"/>
<path d="M34.8545 34.1746C34.8545 39.7388 32.2395 44.9449 28.1849 48.3007C26.5907 49.6277 24.769 50.6473 22.8104 51.3087C21.212 51.845 19.5387 52.1185 17.8545 52.1186C8.46608 52.1186 0.854498 43.6673 0.854498 34.1746C0.853355 32.7732 1.02195 31.3769 1.35652 30.0168L17.8545 39.8848L34.3525 30.0168C34.687 31.3769 34.8556 32.7732 34.8545 34.1746Z" fill="#1C4D6B"/>
<path d="M15.8689 15.9614L17.8544 16.8728L15.5981 17.9096V15.837L15.8689 15.9614Z" fill="black"/>
<path d="M15.5981 20.4146L17.8544 19.3789V36.0932L15.5981 34.7438V20.4146Z" fill="black"/>
<path d="M17.8545 19.3789V36.0932L33.6632 26.6382L17.8545 19.3789Z" fill="#1D4259"/>
<path d="M17.8545 0.11853V19.3788L33.6632 26.6381L17.8545 0.11853Z" fill="#4B6B9A"/>
<path d="M17.8546 19.3789V36.0932L15.5983 34.7438L2.0662 26.645L2.0459 26.6324L2.07636 26.6187C2.09102 26.5811 2.10682 26.5423 2.12261 26.5047L4.10025 23.1864L15.5983 17.9131V20.4226L17.8546 19.3789Z" fill="#343535"/>
<path d="M17.8546 19.3789V36.0932L15.5983 34.7438L2.0662 26.6507L2.0459 26.6382L2.07636 26.6245L15.5983 20.4146L17.8546 19.3789Z" fill="#3E5578"/>
<path d="M17.8546 0.11853V19.3788L2.0459 26.6381L17.8546 0.11853Z" fill="#6DB2D8"/>
<path d="M11.459 50.7474C11.6948 50.8524 11.9339 50.9516 12.1742 51.0452C11.929 50.9516 11.6906 50.8524 11.459 50.7474Z" fill="#335F8A"/>
<path d="M12.1685 51.0452C12.4099 51.1387 12.6524 51.2265 12.8984 51.3087C12.6524 51.2273 12.4091 51.1395 12.1685 51.0452Z" fill="#335F8A"/>
<path d="M13.5269 51.5049C13.7141 51.5585 13.9025 51.6098 14.0909 51.6566C13.9022 51.6094 13.7141 51.5589 13.5269 51.5049Z" fill="#335F8A"/>
<path d="M1.35652 30.0168L17.8545 39.8848C17.6342 41.3864 17.2377 42.8561 16.6733 44.2628C15.3534 47.4886 12.6865 50.9003 7.52634 48.3053C3.46954 44.9472 0.854498 39.7388 0.854498 34.1746C0.853355 32.7732 1.02195 31.3769 1.35652 30.0168Z" fill="#6DB2D8"/>
<path d="M28.1825 48.3019L28.1419 48.3349C28.0562 48.4057 27.9704 48.4752 27.8836 48.5437L27.861 48.5619C27.767 48.638 27.6722 48.711 27.5767 48.7809C27.4741 48.8585 27.3703 48.9361 27.2653 49.0091C27.1604 49.0821 27.0555 49.1585 26.9495 49.2315C26.8434 49.3045 26.7622 49.3593 26.6686 49.4209L26.6167 49.4551C26.5174 49.5201 26.4181 49.584 26.3188 49.6456C26.307 49.6541 26.2946 49.6617 26.2816 49.6684C26.1789 49.7334 26.0763 49.7961 25.9725 49.8566C25.8687 49.917 25.7469 49.9878 25.6341 50.0505C25.5212 50.1132 25.4084 50.1737 25.2956 50.233L25.2832 50.2399C25.1704 50.2992 25.0576 50.3539 24.9448 50.4132C24.8319 50.4726 24.7191 50.5273 24.5973 50.5832C24.4754 50.6391 24.3626 50.6973 24.2453 50.7452C24.0095 50.8501 23.7704 50.9494 23.5301 51.0429C23.2898 51.1364 23.0461 51.2243 22.8002 51.3064C22.702 51.3395 22.6039 51.3714 22.5046 51.4022C22.4053 51.433 22.279 51.4706 22.1718 51.5026C21.9845 51.5562 21.7961 51.6075 21.6077 51.6543C21.5366 51.6725 21.4644 51.6897 21.3922 51.7056L21.2715 51.7341C21.1711 51.757 21.0707 51.7786 20.9692 51.7992C20.8676 51.8197 20.7842 51.8368 20.6905 51.8539C20.5969 51.871 20.5202 51.8859 20.4344 51.8995C20.3487 51.9132 20.2449 51.9303 20.1501 51.944C20.1039 51.952 20.0576 51.9589 20.0103 51.9646L19.797 51.9931L19.6786 52.0079C19.6007 52.0182 19.5218 52.0262 19.4428 52.0341C19.3458 52.0444 19.2499 52.0535 19.1529 52.0615C19.0773 52.0672 19.0017 52.0741 18.9272 52.0786C18.8528 52.0832 18.7964 52.0878 18.7298 52.09H18.7208C18.6441 52.09 18.5674 52.0992 18.4952 52.1014C18.3891 52.1014 18.2819 52.1094 18.1748 52.1117C18.0676 52.114 17.9604 52.1117 17.8521 52.1117C17.7438 52.1117 17.6366 52.1117 17.5295 52.1117C17.4223 52.1117 17.3151 52.1117 17.2091 52.1014C17.1312 52.1014 17.0545 52.0946 16.9778 52.09H16.9688C16.9022 52.09 16.8368 52.0832 16.7714 52.0786C16.7059 52.0741 16.6202 52.0672 16.5457 52.0615C16.4487 52.0535 16.3528 52.0444 16.2558 52.0341C16.1768 52.0262 16.0979 52.0182 16.02 52.0079L15.9072 51.9931C15.8361 51.9851 15.765 51.9748 15.694 51.9646C15.6466 51.9646 15.6003 51.952 15.5541 51.944C15.4586 51.9303 15.3638 51.9155 15.2698 51.8995C15.1841 51.8859 15.0983 51.8699 15.0137 51.8539C14.9291 51.8379 14.8276 51.8186 14.7351 51.7992C14.6425 51.7798 14.5331 51.757 14.4327 51.7341L14.312 51.7056C14.2398 51.6897 14.1676 51.6725 14.0965 51.6543C13.907 51.6075 13.7186 51.5562 13.5325 51.5026L13.194 51.4022C13.0947 51.3714 12.9966 51.3395 12.8984 51.3064C12.6525 51.2243 12.41 51.1364 12.1685 51.0429C11.9271 50.9494 11.6846 50.8524 11.4589 50.7475C11.3461 50.695 11.2243 50.6402 11.1069 50.5855C10.9896 50.5307 10.8745 50.4714 10.7595 50.4155C10.6444 50.3596 10.5338 50.3015 10.421 50.2421L10.4086 50.2353C10.2958 50.176 10.183 50.1144 10.0702 50.0528C9.95737 49.9912 9.84455 49.925 9.73174 49.8589C9.61892 49.7927 9.5298 49.738 9.42827 49.6707L9.39104 49.6478C9.29176 49.5863 9.19248 49.5224 9.09321 49.4574L9.04131 49.4231C8.94768 49.3615 8.85291 49.2977 8.76041 49.2338C8.6679 49.1699 8.54831 49.0866 8.44452 49.0114C8.34074 48.9361 8.23582 48.8585 8.13316 48.7832C8.0305 48.7079 7.9425 48.6383 7.84886 48.5642L7.8263 48.546C7.73943 48.4775 7.6537 48.4079 7.56796 48.3372L7.52734 48.3041C12.6875 50.8992 15.3544 47.4874 16.6743 44.2616C17.2384 42.856 17.6349 41.3875 17.8555 39.8871C18.0756 41.3878 18.4717 42.8567 19.0355 44.2627C20.3555 47.4851 23.0224 50.8969 28.1825 48.3019Z" fill="#529BBA"/>
<path d="M21.6123 51.6566C21.8018 51.6098 21.9902 51.5585 22.1764 51.5049C21.9929 51.5596 21.8048 51.6102 21.6123 51.6566Z" fill="#335F8A"/>
<path d="M22.8105 51.3087C23.0565 51.2265 23.299 51.1387 23.5405 51.0452C23.3005 51.1395 23.0572 51.2273 22.8105 51.3087Z" fill="#335F8A"/>
<path d="M23.5405 51.0452C23.7808 50.9516 24.02 50.8524 24.2558 50.7474C24.0204 50.8524 23.782 50.9516 23.5405 51.0452Z" fill="#335F8A"/>
<path d="M34.8545 34.1746C34.8545 39.7388 32.2383 44.946 28.1826 48.3019C23.0225 50.8969 20.3556 47.4852 19.0357 44.2593C18.4716 42.8538 18.075 41.3852 17.8545 39.8848L34.3525 30.0168C34.687 31.3769 34.8556 32.7732 34.8545 34.1746Z" fill="#4B6B9A"/>
</g>
<defs>
<clipPath id="clip0_257_4022">
<rect width="34" height="52" fill="white" transform="translate(0.854492 0.11853)"/>
</clipPath>
</defs>
</svg>
