<svg width="52" height="53" viewBox="0 0 52 53" fill="none" xmlns="http://www.w3.org/2000/svg">
<path fill-rule="evenodd" clip-rule="evenodd" d="M26.3545 0.308472C40.4378 0.308472 51.8545 11.9491 51.8545 26.3085C51.8545 40.6679 40.4378 52.3085 26.3545 52.3085C12.2712 52.3085 0.854492 40.6679 0.854492 26.3085C0.854492 11.9491 12.2712 0.308472 26.3545 0.308472Z" fill="url(#paint0_radial_257_4019)"/>
<path d="M17.0601 20.3883C22.1933 15.2819 30.5157 15.2819 35.6489 20.3883L36.2667 21.0028C36.5233 21.2582 36.5233 21.6721 36.2667 21.9274L34.1534 24.0297C34.025 24.1574 33.817 24.1574 33.6887 24.0297L32.8385 23.184C29.2575 19.6217 23.4515 19.6217 19.8705 23.184L18.9601 24.0897C18.8317 24.2174 18.6237 24.2174 18.4954 24.0897L16.382 21.9874C16.1254 21.7321 16.1254 21.3181 16.382 21.0628L17.0601 20.3883ZM40.0194 24.7361L41.9003 26.6071C42.1569 26.8624 42.1569 27.2764 41.9003 27.5317L33.4194 35.9685C33.1627 36.2239 32.7466 36.2239 32.49 35.9685C32.49 35.9685 32.49 35.9685 32.49 35.9685L26.4707 29.9807C26.4066 29.9168 26.3025 29.9168 26.2384 29.9807C26.2384 29.9807 26.2384 29.9807 26.2384 29.9807L20.2193 35.9685C19.9626 36.2239 19.5465 36.2239 19.2898 35.9685C19.2898 35.9685 19.2898 35.9685 19.2898 35.9685L10.8087 27.5316C10.552 27.2763 10.552 26.8623 10.8087 26.607L12.6896 24.7359C12.9462 24.4806 13.3623 24.4806 13.619 24.7359L19.6383 30.7239C19.7025 30.7877 19.8065 30.7877 19.8707 30.7239C19.8707 30.7239 19.8707 30.7239 19.8707 30.7239L25.8897 24.7359C26.1463 24.4806 26.5625 24.4806 26.8191 24.7359C26.8191 24.7359 26.8191 24.7359 26.8191 24.7359L32.8384 30.7239C32.9026 30.7877 33.0066 30.7877 33.0708 30.7239L39.09 24.7361C39.3466 24.4807 39.7628 24.4807 40.0194 24.7361Z" fill="white"/>
<defs>
<radialGradient id="paint0_radial_257_4019" cx="0" cy="0" r="1" gradientUnits="userSpaceOnUse" gradientTransform="translate(0.854492 26.3085) scale(51 52)">
<stop stop-color="#5D9DF6"/>
<stop offset="1" stop-color="#006FFF"/>
</radialGradient>
</defs>
</svg>
